0
SECTION
2
ENTITIES
0
LINE
10
0.0
20
0.0
11
12000.0
21
0.0
0
LINE
10
12000.0
20
0.0
11
12000.0
21
10000.0
0
LINE
10
12000.0
20
10000.0
11
0.0
21
10000.0
0
LINE
10
0.0
20
10000.0
11
0.0
21
0.0
0
LINE
10
4000.0
20
0.0
11
4000.0
21
10000.0
0
LINE
10
6000.0
20
0.0
11
6000.0
21
10000.0
0
LINE
10
0.0
20
5000.0
11
4000.0
21
5000.0
0
LINE
10
6000.0
20
5000.0
11
12000.0
21
5000.0
0
LINE
10
9000.0
20
0.0
11
9000.0
21
5000.0
0
LINE
10
4000.0
20
2000.0
11
6000.0
21
2000.0
0
LINE
10
4000.0
20
3000.0
11
6000.0
21
3000.0
0
LINE
10
4000.0
20
4000.0
11
6000.0
21
4000.0
0
LINE
10
4000.0
20
8000.0
11
6000.0
21
8000.0
0
ENDSEC
0
EOF
